<mxfile host="app.diagrams.net" modified="2024-01-08T09:51:15.517Z" agent="Mozilla/5.0 (Windows NT 10.0; Win64; x64) AppleWebKit/537.36 (KHTML, like Gecko) Chrome/120.0.0.0 Safari/537.36 Edg/120.0.0.0" etag="GFv8rwgjBdPUbPOtPsi9" version="21.6.8" type="device">
  <diagram name="ページ1" id="Mcicym_kn1qqEBayv5_x">
    <mxGraphModel dx="861" dy="667" grid="1" gridSize="10" guides="1" tooltips="1" connect="1" arrows="1" fold="1" page="1" pageScale="1" pageWidth="827" pageHeight="1169" math="0" shadow="0">
      <root>
        <mxCell id="0" />
        <mxCell id="1" parent="0" />
        <mxCell id="Zwl6UuzSeGmdQGq71s9r-3" value="" style="shape=image;verticalLabelPosition=bottom;labelBackgroundColor=default;verticalAlign=top;aspect=fixed;imageAspect=0;image=https://image.freepik.com/free-vector/_53876-5576.jpg;" vertex="1" parent="1">
          <mxGeometry x="141.5" y="147.07" width="190" height="190" as="geometry" />
        </mxCell>
        <mxCell id="Zwl6UuzSeGmdQGq71s9r-4" value="&lt;font style=&quot;font-size: 16px;&quot;&gt;2.歩きスマホを&lt;br&gt;やめてください。&lt;/font&gt;" style="shape=callout;whiteSpace=wrap;html=1;perimeter=calloutPerimeter;" vertex="1" parent="1">
          <mxGeometry x="153" y="80" width="167" height="90" as="geometry" />
        </mxCell>
        <mxCell id="Zwl6UuzSeGmdQGq71s9r-5" value="" style="shape=image;verticalLabelPosition=bottom;labelBackgroundColor=default;verticalAlign=top;aspect=fixed;imageAspect=0;image=https://1.bp.blogspot.com/-OR8UcGn1V9Y/V5QoFn3tT-I/AAAAAAAA8m4/Bpc9UGpIV0IW5NYuzQc5EmxJgCLIghV2QCLcB/s800/smartphone_man_walk.png;" vertex="1" parent="1">
          <mxGeometry x="460" y="170" width="100.9" height="144.14" as="geometry" />
        </mxCell>
        <mxCell id="Zwl6UuzSeGmdQGq71s9r-6" value="&lt;font style=&quot;font-size: 16px;&quot;&gt;1. 歩きスマホは&lt;br&gt;危険である。&lt;br&gt;　&lt;/font&gt;" style="whiteSpace=wrap;html=1;shape=mxgraph.basic.cloud_callout" vertex="1" parent="1">
          <mxGeometry x="520" y="80" width="150" height="90" as="geometry" />
        </mxCell>
        <mxCell id="Zwl6UuzSeGmdQGq71s9r-7" value="" style="shape=flexArrow;endArrow=classic;startArrow=classic;html=1;rounded=0;" edge="1" parent="1">
          <mxGeometry width="100" height="100" relative="1" as="geometry">
            <mxPoint x="330" y="110" as="sourcePoint" />
            <mxPoint x="500" y="110" as="targetPoint" />
          </mxGeometry>
        </mxCell>
        <mxCell id="Zwl6UuzSeGmdQGq71s9r-8" value="&lt;font style=&quot;font-size: 28px;&quot; color=&quot;#ff0000&quot;&gt;矛盾&lt;/font&gt;" style="text;html=1;align=center;verticalAlign=middle;resizable=0;points=[];autosize=1;strokeColor=none;fillColor=none;" vertex="1" parent="1">
          <mxGeometry x="370" y="70" width="80" height="50" as="geometry" />
        </mxCell>
        <mxCell id="Zwl6UuzSeGmdQGq71s9r-9" value="&lt;font style=&quot;font-size: 22px;&quot;&gt;3. 不快感&lt;/font&gt;" style="ellipse;shape=cloud;whiteSpace=wrap;html=1;" vertex="1" parent="1">
          <mxGeometry x="350" y="360" width="120" height="80" as="geometry" />
        </mxCell>
        <mxCell id="Zwl6UuzSeGmdQGq71s9r-10" value="" style="endArrow=classic;html=1;rounded=0;exitX=0.497;exitY=1.055;exitDx=0;exitDy=0;exitPerimeter=0;entryX=0.502;entryY=0.045;entryDx=0;entryDy=0;entryPerimeter=0;" edge="1" parent="1" source="Zwl6UuzSeGmdQGq71s9r-8" target="Zwl6UuzSeGmdQGq71s9r-9">
          <mxGeometry width="50" height="50" relative="1" as="geometry">
            <mxPoint x="430" y="270" as="sourcePoint" />
            <mxPoint x="480" y="220" as="targetPoint" />
          </mxGeometry>
        </mxCell>
        <mxCell id="Zwl6UuzSeGmdQGq71s9r-12" value="" style="shape=flexArrow;endArrow=classic;html=1;rounded=0;" edge="1" parent="1" source="Zwl6UuzSeGmdQGq71s9r-9">
          <mxGeometry width="50" height="50" relative="1" as="geometry">
            <mxPoint x="430" y="370" as="sourcePoint" />
            <mxPoint x="550" y="400" as="targetPoint" />
          </mxGeometry>
        </mxCell>
        <mxCell id="Zwl6UuzSeGmdQGq71s9r-13" value="" style="shape=flexArrow;endArrow=classic;html=1;rounded=0;" edge="1" parent="1">
          <mxGeometry width="50" height="50" relative="1" as="geometry">
            <mxPoint x="350" y="406" as="sourcePoint" />
            <mxPoint x="260" y="406" as="targetPoint" />
            <Array as="points">
              <mxPoint x="330" y="406" />
            </Array>
          </mxGeometry>
        </mxCell>
        <mxCell id="Zwl6UuzSeGmdQGq71s9r-15" value="&lt;font style=&quot;font-size: 15px;&quot;&gt;4&#39;.歩きスマホの中止&lt;/font&gt;" style="rounded=1;whiteSpace=wrap;html=1;" vertex="1" parent="1">
          <mxGeometry x="560.9" y="370" width="120" height="60" as="geometry" />
        </mxCell>
        <mxCell id="Zwl6UuzSeGmdQGq71s9r-16" value="&lt;font style=&quot;font-size: 15px;&quot;&gt;4. 生じる不快感の解消&lt;/font&gt;" style="rounded=1;whiteSpace=wrap;html=1;" vertex="1" parent="1">
          <mxGeometry x="120" y="380" width="130" height="60" as="geometry" />
        </mxCell>
      </root>
    </mxGraphModel>
  </diagram>
</mxfile>
